# xmcd
#
# Track frame offsets:
#	150
#	17610
#	40103
#	57215
#	72298
#	93110
#	107217
#	120686
#	134752
#	147229
#	162332
#	173298
#	187714
#	196714
#	206694
#	233197
#
# Disc length: 3359 seconds
#
# Revision: 1
# Processed by: cddbd v1.5.2PL0 Copyright (c) Steve Scherf et al.
# Submitted via: audiograbber 1.83.01
#
DISCID=d20d1d10
DTITLE=Various Artist - Keb Darge digs for P&P Records CD1
DYEAR=1900
DGENRE=
TTITLE0=Henry Brooks - Mini-Skirt
TTITLE1=Soul Severes - I Got It (Pts 1 and 2)
TTITLE2=The Sentimental Souls - Gettin in' the Groove (Pts 1 and 2)
TTITLE3=Otis Turner and the Mighty Kingpins - Do the Funky Donkey
TTITLE4=Ella Hamilton - I'm Gonna Fool You
TTITLE5=Sons of Darkness - Funky Thing
TTITLE6=Flame and The Sons of Darkness - Solid Funk
TTITLE7=Sons of Darkness - What it Looks Like
TTITLE8=Eddie Owen - Determination
TTITLE9=Wild Honey - I've Been Working
TTITLE10=Sons of Darkness - Black Ice
TTITLE11=Otis Turner and the Mighty Kingpins - Who's Gonna
TTITLE12=Smokey Brroks - Long Time Ago
TTITLE13=Henry Brooks - The Greatest Debt to My Mother
TTITLE14=Peter Brown - Hooker (Pts 1 and 2)
TTITLE15=King David - Hitch Hike One More Time
EXTD=
EXTT0=
EXTT1=
EXTT2=
EXTT3=
EXTT4=
EXTT5=
EXTT6=
EXTT7=
EXTT8=
EXTT9=
EXTT10=
EXTT11=
EXTT12=
EXTT13=
EXTT14=
EXTT15=
PLAYORDER=
